PathFileType	4	(X/Y/Z)	/Users/itak/Documents/Research/Walk-IL/dataset/trc/00349_00011.trc
DataRate	CameraRate	NumFrames	NumMarkers	Units	OrigDataRate	OrigDataStartFrame	OrigNumFrames
100.000000	100.000000	4	59	mm	100.000000	327	654
Frame#	Time	RPSI			LPSI			L3			STRN			T10			C7			CLAV			RBAK			LBAK			LSHO			LUPA			LAEL			LAOL			LWTS			LWPS			LFRA			LIFD			LHPS			LHTS			RSHO			RUPA			RAEL			RAOL			RWTS			RWPS			RFRA			RHTS			RHPS			RBHD			LFHD			RFHD			LBHD			RASI			LASI			LKNE			LTHI			LANK			LTIP			LTOE			LMT1			LMT5			LHEE			RKNE			RANK			RTIP			RTOE			RMT1			RMT5			RHEE			RIFD			LHIP			RTHI			RHIP			*53			*54			*55			*56			*57			*58			
		X1	Y1	Z1	X2	Y2	Z2	X3	Y3	Z3	X4	Y4	Z4	X5	Y5	Z5	X6	Y6	Z6	X7	Y7	Z7	X8	Y8	Z8	X9	Y9	Z9	X10	Y10	Z10	X11	Y11	Z11	X12	Y12	Z12	X13	Y13	Z13	X14	Y14	Z14	X15	Y15	Z15	X16	Y16	Z16	X17	Y17	Z17	X18	Y18	Z18	X19	Y19	Z19	X20	Y20	Z20	X21	Y21	Z21	X22	Y22	Z22	X23	Y23	Z23	X24	Y24	Z24	X25	Y25	Z25	X26	Y26	Z26	X27	Y27	Z27	X28	Y28	Z28	X29	Y29	Z29	X30	Y30	Z30	X31	Y31	Z31	X32	Y32	Z32	X33	Y33	Z33	X34	Y34	Z34	X35	Y35	Z35	X36	Y36	Z36	X37	Y37	Z37	X38	Y38	Z38	X39	Y39	Z39	X40	Y40	Z40	X41	Y41	Z41	X42	Y42	Z42	X43	Y43	Z43	X44	Y44	Z44	X45	Y45	Z45	X46	Y46	Z46	X47	Y47	Z47	X48	Y48	Z48	X49	Y49	Z49	X50	Y50	Z50	X51	Y51	Z51	X52	Y52	Z52	X53	Y53	Z53	X54	Y54	Z54	X55	Y55	Z55	X56	Y56	Z56	X57	Y57	Z57	X58	Y58	Z58	X59	Y59	Z59	

328	3.27	-41.87273025512695	942.7595825195312	-410.330810546875	-41.06821823120117	958.1983642578125	-538.6283569335938	-40.75532913208008	1015.251403808594	-483.2081298828125	196.1528167724609	1184.117797851562	-463.9618225097656	-38.0911865234375	1132.068969726562	-507.846923828125	17.28225135803223	1374.278930664062	-524.2206420898438	163.2366180419922	1313.048217773438	-475.6444702148438	-50.60512161254883	1237.638916015625	-473.22900390625	30.90289306640625	1336.184814453125	-624.6107788085938	127.9046173095703	1353.309326171875	-653.8546752929688	138.4189758300781	1241.598022460938	-732.21435546875	212.7247467041016	1059.477172851562	-782.4683837890625	157.5976867675781	1015.127380371094	-735.0991821289062	413.04833984375	904.2827758789062	-768.7401733398438	379.337158203125	871.7159423828125	-819.9598999023438	270.6550903320312	974.5545043945312	-803.5046997070312	509.9970092773438	779.0590209960938	-773.0955810546875	417.6870422363281	812.9832153320312	-819.9536743164062	465.4156494140625	848.4924926757812	-794.17822265625	23.62943840026855	1363.263549804688	-353.6341552734375	-20.55465888977051	1305.720703125	-303.7481384277344	-101.5001220703125	1051.998291015625	-292.5660095214844	-73.24779510498047	1041.098876953125	-381.2794494628906	-63.82817077636719	802.7882080078125	-254.1197052001953	-137.5053558349609	808.33349609375	-235.0774841308594	-110.2837982177734	985.0989990234375	-270.6870727539062	-87.12773132324219	701.0509033203125	-229.4745330810547	-152.0836791992188	724.2225952148438	-230.2807464599609	32.47845840454102	1572.822631835938	-437.7234191894531	235.7825317382812	1590.2578125	-479.8255615234375	187.9092864990234	1587.60009765625	-391.0555114746094	76.22675323486328	1571.871215820312	-575.0711669921875	143.3256530761719	913.1046142578125	-353.6549072265625	162.5243530273438	916.13671875	-593.8504028320312	-6.153422355651855	450.4259643554688	-635.4785766601562	25.67627334594727	584.7949829101562	-646.73876953125	-194.2685241699219	55.24480819702148	-591.5278930664062	-102.2975311279297	244.4606781005859	-629.5440673828125	14.98667144775391	37.6278076171875	-623.237548828125	-31.01231384277344	26.91764640808105	-555.5183715820312	-88.01104736328125	39.13772964477539	-654.3610229492188	-198.3441619873047	51.45568466186523	-516.2568359375	219.0948028564453	440.7488403320312	-375.5338745117188	358.5767211914062	54.53732299804688	-438.1171264648438	274.28076171875	343.113037109375	-385.4164123535156	530.7078857421875	135.8581085205078	-392.5614929199219	510.3879699707031	113.4968795776367	-454.4154968261719	433.8724975585938	75.12541198730469	-372.5253601074219	334.9904174804688	47.55982971191406	-504.4449462890625	-117.4078369140625	636.1610717773438	-251.0190734863281	34.79065704345703	902.740966796875	-650.1266479492188	152.6947784423828	685.440185546875	-308.1615295410156	42.46078491210938	882.6834716796875	-306.6637878417969	nan	nan	nan	nan	nan	nan	nan	nan	nan	nan	nan	nan	nan	nan	nan	nan	nan	nan	
329	3.28	-33.96642684936523	941.0513916015625	-410.2044982910156	-32.65785980224609	956.9518432617188	-538.4346313476562	-32.57571411132812	1013.688659667969	-482.9771728515625	203.9521789550781	1182.71435546875	-462.4369201660156	-29.90627670288086	1130.458618164062	-507.6822814941406	25.20913887023926	1372.816040039062	-523.8182983398438	170.8482666015625	1311.56884765625	-474.244384765625	-42.93939590454102	1236.068359375	-473.3238220214844	39.33100128173828	1334.703735351562	-624.1021118164062	136.5209350585938	1351.624877929688	-652.8494262695312	147.2259063720703	1239.615844726562	-730.818115234375	221.561279296875	1057.35400390625	-780.4380493164062	165.9671783447266	1013.069458007812	-733.5149536132812	422.3840942382812	903.883056640625	-763.523193359375	389.9737854003906	871.086669921875	-815.1828002929688	280.1316223144531	972.9029541015625	-800.5784912109375	521.3040771484375	780.360107421875	-766.186767578125	429.0923767089844	812.7973022460938	-814.376220703125	476.1282043457031	849.1112060546875	-788.1866455078125	30.37348175048828	1361.760009765625	-353.1368713378906	-14.05063247680664	1303.842651367188	-303.697021484375	-94.43943023681641	1049.806274414062	-294.3826904296875	-65.32612609863281	1039.377075195312	-382.8421936035156	-56.96383285522461	800.8987426757812	-255.9209136962891	-131.0497436523438	806.013916015625	-238.3190002441406	-103.4061050415039	982.866455078125	-272.8584594726562	-80.87868499755859	698.5361328125	-233.2095184326172	-145.7432708740234	721.7900390625	-234.426025390625	39.27102279663086	1571.51611328125	-437.9803161621094	243.0251007080078	1589.11669921875	-477.917236328125	194.2001495361328	1586.530151367188	-389.6329040527344	84.51552581787109	1570.406616210938	-574.8267822265625	151.1082916259766	911.1994018554688	-353.2474670410156	170.9647369384766	914.7679443359375	-593.4563598632812	-0.918094277381897	450.1041870117188	-635.8128662109375	32.1177864074707	584.1699829101562	-646.9492797851562	-193.9188995361328	56.86295700073242	-592.2886962890625	-99.57862854003906	245.2297515869141	-630.0408325195312	15.03208065032959	37.56303787231445	-623.3460693359375	-30.90264701843262	27.02377510070801	-555.6724853515625	-87.72642517089844	39.33012008666992	-654.6649780273438	-198.3224182128906	53.51802825927734	-516.9996948242188	227.8997802734375	439.6888122558594	-374.7937316894531	367.7579040527344	53.83852386474609	-435.8569641113281	282.5940246582031	342.0353088378906	-383.7793273925781	538.4803466796875	135.2681884765625	-386.9801330566406	519.4856567382812	113.1512222290039	-449.3624267578125	441.5745544433594	74.28822326660156	-368.8433837890625	345.3118286132812	46.83952331542969	-502.6751708984375	-111.0092620849609	633.8822631835938	-255.6525421142578	43.32327270507812	901.8206176757812	-650.0130004882812	161.1665649414062	683.962158203125	-308.4031677246094	50.16007995605469	880.6884765625	-306.54931640625	nan	nan	nan	nan	nan	nan	nan	nan	nan	nan	nan	nan	nan	nan	nan	nan	nan	nan	
330	3.29	-25.97238349914551	939.4720458984375	-409.9945678710938	-24.11807441711426	955.79833984375	-538.1304321289062	-24.34730339050293	1012.224670410156	-482.6829223632812	211.871826171875	1181.406372070312	-460.695068359375	-21.60690689086914	1128.9296875	-507.4292907714844	33.24388885498047	1371.445190429688	-523.2477416992188	178.5731964111328	1310.182861328125	-472.6226806640625	-35.14786911010742	1234.592651367188	-473.2902221679688	47.92910003662109	1333.338500976562	-623.4061889648438	145.3098754882812	1350.055908203125	-651.6193237304688	156.16748046875	1237.754272460938	-729.2210083007812	230.316162109375	1055.27197265625	-778.2237548828125	174.1240997314453	1011.131530761719	-731.8106079101562	431.1875	903.0454711914062	-757.96240234375	400.1424255371094	870.2398071289062	-810.1690673828125	289.3682250976562	971.2191162109375	-797.4500732421875	531.9229125976562	781.225341796875	-759.110107421875	439.9085388183594	812.3399658203125	-808.6019287109375	486.2214965820312	849.23486328125	-781.869873046875	37.19766235351562	1360.349731445312	-352.4756774902344	-7.449748039245605	1302.036499023438	-303.4776916503906	-87.10985565185547	1047.635131835938	-295.8651428222656	-57.19866943359375	1037.703735351562	-384.10205078125	-49.59642028808594	799.1187133789062	-257.3545227050781	-124.0766830444336	803.7063598632812	-241.176513671875	-96.19434356689453	980.6478881835938	-274.6913146972656	-74.08623504638672	696.0595703125	-236.7720642089844	-138.8968811035156	719.372314453125	-238.2138824462891	46.15530395507812	1570.302001953125	-438.0736389160156	250.3094024658203	1588.085571289062	-475.8716125488281	200.5544586181641	1585.583618164062	-388.082763671875	92.85087585449219	1569.001220703125	-574.4168701171875	159.0044860839844	909.460693359375	-352.7113647460938	179.5591735839844	913.483642578125	-592.9375610351562	4.687648773193359	449.8289184570312	-636.119140625	38.87772750854492	583.5704956054688	-647.1187133789062	-193.5181121826172	58.7380256652832	-593.1634521484375	-96.60835266113281	246.1157073974609	-630.5707397460938	15.09944248199463	37.49206924438477	-623.4602661132812	-30.77165412902832	27.16576957702637	-555.8654174804688	-87.37995147705078	39.57460403442383	-655.0247802734375	-198.2756500244141	55.84771728515625	-517.8592529296875	237.4421691894531	439.0335693359375	-373.6016540527344	374.7153930664062	52.55525588989258	-433.9378356933594	291.1650695800781	340.7711791992188	-382.0533447265625	544.63671875	132.9049835205078	-382.3529663085938	526.6688842773438	111.0766448974609	-445.1304931640625	447.3749389648438	72.39508056640625	-365.7999572753906	353.2697143554688	45.65805435180664	-501.1423034667969	-104.1142120361328	631.6412963867188	-260.0683898925781	52.14025497436523	900.9429321289062	-649.7211303710938	170.3238525390625	683.175537109375	-308.5025634765625	57.9108772277832	878.9258422851562	-306.3627014160156	nan	nan	nan	nan	nan	nan	nan	nan	nan	nan	nan	nan	nan	nan	nan	nan	nan	nan	
331	3.3	-17.83773231506348	938.0618896484375	-409.7168884277344	-15.39715099334717	954.7533569335938	-537.7262573242188	-16.01118850708008	1010.869445800781	-482.3426513671875	219.9077911376953	1180.216064453125	-458.7356262207031	-13.20169258117676	1127.498657226562	-507.1073913574219	41.37950897216797	1370.18017578125	-522.5169067382812	186.4155578613281	1308.918579101562	-470.7890014648438	-27.22642517089844	1233.222778320312	-473.1407775878906	56.70757675170898	1332.107055664062	-622.53369140625	154.2811737060547	1348.627075195312	-650.1646728515625	165.2713012695312	1236.048461914062	-727.4335327148438	238.9819641113281	1053.256713867188	-775.8267211914062	182.0696868896484	1009.345031738281	-729.9799194335938	439.5119934082031	901.835693359375	-752.122314453125	409.8323059082031	869.1708374023438	-804.944580078125	298.3401794433594	969.51220703125	-794.1263427734375	541.8090209960938	781.60205078125	-751.864501953125	450.1046447753906	811.58837890625	-802.6532592773438	495.6992492675781	848.8677368164062	-775.2664794921875	44.10907745361328	1359.044799804688	-351.6614379882812	-0.7654096484184265	1300.328979492188	-303.1024475097656	-79.53636169433594	1045.519409179688	-297.0220947265625	-48.87965393066406	1036.10400390625	-385.0670776367188	-41.76830291748047	797.4281616210938	-258.5292358398438	-116.5885848999023	801.4382934570312	-243.631591796875	-88.67042541503906	978.4762573242188	-276.1862182617188	-66.73767852783203	693.6576538085938	-240.1362762451172	-131.5582733154297	717.0015258789062	-241.6191253662109	53.12625885009766	1569.1806640625	-438.0090942382812	257.6319274902344	1587.178588867188	-473.6898193359375	206.9705352783203	1584.771606445312	-386.4054565429688	101.23388671875	1567.661865234375	-573.8449096679688	167.0560607910156	907.9464111328125	-352.0154724121094	188.3603363037109	912.3025512695312	-592.2647094726562	10.71111965179443	449.60400390625	-636.36181640625	45.99246215820312	583.0004272460938	-647.2122192382812	-193.0403900146484	60.90130233764648	-594.1279296875	-93.35846710205078	247.1369171142578	-631.1099853515625	15.19429016113281	37.41804504394531	-623.578369140625	-30.62049293518066	27.34687423706055	-556.0929565429688	-86.95793151855469	39.88603591918945	-655.439208984375	-198.1615142822266	58.4732551574707	-518.811767578125	247.5109558105469	438.6671142578125	-371.9855346679688	379.6861267089844	50.75943756103516	-432.4481811523438	299.8680419921875	339.3070678710938	-380.293701171875	549.376220703125	129.0280303955078	-378.6690979003906	532.1806030273438	107.4974212646484	-441.7160949707031	451.48583984375	69.59244537353516	-363.4163513183594	359.1419677734375	44.08619689941406	-499.9523620605469	-96.73007965087891	629.47216796875	-264.2336730957031	61.25194931030273	900.1051025390625	-649.2493286132812	180.0304260253906	683.0435180664062	-308.3914794921875	65.76266479492188	877.4445190429688	-306.0806274414062	nan	nan	nan	nan	nan	nan	nan	nan	nan	nan	nan	nan	nan	nan	nan	nan	nan	nan	
